<?xml version="1.0" standalone="no"?><!DOCTYPE svg PUBLIC "-//W3C//DTD SVG 1.1//EN" "http://www.w3.org/Graphics/SVG/1.1/DTD/svg11.dtd"><svg t="1499288107069" class="icon" style="" viewBox="0 0 1024 1024" version="1.1" xmlns="http://www.w3.org/2000/svg" p-id="5214" xmlns:xlink="http://www.w3.org/1999/xlink" width="200" height="200"><defs><style type="text/css"></style></defs><path d="M768 1024 256 1024c-35.328 0-64-28.608-64-64L192 64c0-35.328 28.672-64 64-64l512 0c35.392 0 64 28.672 64 64l0 896C832 995.392 803.392 1024 768 1024zM512 960c35.392 0 64-28.608 64-64s-28.608-64-64-64c-35.328 0-64 28.608-64 64S476.672 960 512 960zM704 128 320 128l0 640 384 0L704 128z" p-id="5215" fill="#4285F4"></path></svg>