<?xml version="1.0" standalone="no"?><!DOCTYPE svg PUBLIC "-//W3C//DTD SVG 1.1//EN" "http://www.w3.org/Graphics/SVG/1.1/DTD/svg11.dtd"><svg t="1499263216038" class="icon" style="" viewBox="0 0 1024 1024" version="1.1" xmlns="http://www.w3.org/2000/svg" p-id="988" xmlns:xlink="http://www.w3.org/1999/xlink" width="200" height="200"><defs><style type="text/css"></style></defs><path d="M953.6 352v-6.4l-76.8-185.6c-12.8-38.4-51.2-64-96-64h-524.8c-44.8 0-76.8 25.6-89.6 57.6l-83.2 192v6.4c-6.4 19.2-6.4 38.4-6.4 57.6 0 64 38.4 121.6 96 153.6 25.6 12.8 51.2 19.2 83.2 19.2 51.2 0 102.4-25.6 134.4-64 32 38.4 83.2 64 134.4 64s102.4-25.6 134.4-64c32 38.4 83.2 64 134.4 64 32 0 57.6-6.4 83.2-19.2 57.6-32 89.6-89.6 89.6-153.6-6.4-19.2-6.4-38.4-12.8-57.6z m-115.2 153.6c-12.8 6.4-32 12.8-51.2 12.8-38.4 0-76.8-19.2-96-51.2 0 0-6.4-6.4-6.4-12.8-6.4-6.4-12.8-12.8-32-12.8-12.8 0-25.6 6.4-32 12.8-6.4 6.4-6.4 12.8-6.4 12.8-19.2 32-57.6 51.2-96 51.2s-76.8-19.2-96-51.2c0 0-6.4-6.4-6.4-12.8-12.8-19.2-51.2-19.2-64 0-6.4 6.4-6.4 12.8-6.4 12.8-19.2 32-57.6 51.2-96 51.2-19.2 0-38.4-6.4-51.2-12.8-38.4-19.2-57.6-57.6-57.6-96 0-12.8 0-25.6 6.4-38.4l76.8-185.6c0-6.4 6.4-19.2 32-19.2h524.8c12.8 0 25.6 0 32 19.2l76.8 185.6v6.4c6.4 12.8 6.4 25.6 6.4 38.4 0 32-19.2 70.4-57.6 89.6z m25.6 102.4c-19.2 0-32 12.8-32 32v172.8c0 12.8-6.4 19.2-19.2 19.2h-601.6c-12.8 0-19.2-6.4-19.2-19.2V640c0-19.2-12.8-32-32-32s-32 12.8-32 32v172.8c0 44.8 38.4 83.2 83.2 83.2h601.6c44.8 0 83.2-38.4 83.2-83.2V640c0-19.2-12.8-32-32-32z m-96-224h-512c-19.2 0-32-12.8-32-32s12.8-32 32-32h512c19.2 0 32 12.8 32 32s-12.8 32-32 32z" fill="#11C3FE" p-id="989"></path></svg>