<?xml version="1.0" standalone="no"?><!DOCTYPE svg PUBLIC "-//W3C//DTD SVG 1.1//EN" "http://www.w3.org/Graphics/SVG/1.1/DTD/svg11.dtd"><svg t="1499287011451" class="icon" style="" viewBox="0 0 1024 1024" version="1.1" xmlns="http://www.w3.org/2000/svg" p-id="3656" xmlns:xlink="http://www.w3.org/1999/xlink" width="200" height="200"><defs><style type="text/css"></style></defs><path d="M426.667 213.333c-211.2 0-384 172.8-384 384s172.8 384 384 384 384-172.8 384-384-172.8-384-384-384z m-117.334 64c-19.2 23.467-36.266 53.334-51.2 87.467-17.066-8.533-32-19.2-46.933-32 29.867-23.467 61.867-42.667 98.133-55.467zM179.2 362.667c17.067 17.066 38.4 29.866 61.867 42.666-17.067 51.2-25.6 108.8-27.734 170.667h-128c6.4-83.2 40.534-157.867 93.867-213.333z m-91.733 256h128c2.133 61.866 12.8 119.466 27.733 170.666-23.467 12.8-44.8 25.6-61.867 42.667-55.466-55.467-89.6-130.133-93.866-213.333z m123.733 243.2c12.8-10.667 29.867-21.334 46.933-32 14.934 34.133 32 64 51.2 87.466-36.266-12.8-68.266-32-98.133-55.466zM405.333 934.4c-44.8-10.667-83.2-57.6-110.933-123.733 34.133-12.8 70.4-19.2 110.933-21.334V934.4z m0-187.733c-44.8 2.133-87.466 10.666-123.733 25.6-12.8-44.8-21.333-98.134-23.467-153.6h149.334v128z m0-170.667H256c2.133-55.467 10.667-108.8 23.467-153.6 38.4 14.933 78.933 23.467 123.733 25.6v128z m0-170.667C364.8 403.2 328.533 394.667 294.4 384c27.733-66.133 66.133-110.933 110.933-123.733v145.066z m236.8-72.533c-12.8 10.667-29.866 21.333-46.933 32-14.933-34.133-32-64-51.2-87.467 36.267 12.8 68.267 32 98.133 55.467zM448 260.267c44.8 10.666 83.2 57.6 110.933 123.733-34.133 12.8-70.4 19.2-110.933 21.333V260.267zM448 448c44.8-2.133 87.467-10.667 123.733-25.6 12.8 44.8 21.334 98.133 23.467 153.6H445.867V448z m0 170.667h149.333c-2.133 55.466-10.666 108.8-23.466 153.6-38.4-14.934-78.934-23.467-123.734-25.6v-128z m0 315.733V789.333c40.533 2.134 76.8 10.667 110.933 21.334C531.2 878.933 492.8 923.733 448 934.4z m96-17.067c19.2-23.466 36.267-53.333 51.2-87.466 17.067 8.533 32 19.2 46.933 32-29.866 23.466-61.866 42.666-98.133 55.466zM674.133 832c-17.066-17.067-38.4-29.867-61.866-42.667 17.066-51.2 25.6-108.8 27.733-170.666h128c-6.4 83.2-40.533 157.866-93.867 213.333zM640 576c-2.133-61.867-12.8-119.467-27.733-170.667 23.466-12.8 44.8-25.6 61.866-42.666C727.467 418.133 763.733 492.8 768 576H640zM597.333 42.667C473.6 42.667 364.8 100.267 294.4 192c32-10.667 66.133-17.067 100.267-19.2-4.267-2.133-8.534-6.4-12.8-8.533C411.733 140.8 443.733 121.6 480 108.8c-14.933 17.067-27.733 40.533-40.533 64 14.933 0 29.866 2.133 44.8 4.267 25.6-46.934 57.6-76.8 93.866-85.334v108.8c14.934 6.4 29.867 10.667 42.667 19.2v-128c44.8 10.667 83.2 57.6 110.933 123.734-25.6 10.666-53.333 17.066-83.2 19.2C665.6 245.333 682.667 256 697.6 268.8c17.067-4.267 34.133-8.533 49.067-14.933 8.533 25.6 12.8 53.333 17.066 81.066 25.6 32 46.934 70.4 61.867 113.067h110.933c-4.266 81.067-38.4 151.467-89.6 206.933-4.266 25.6-8.533 51.2-17.066 74.667C921.6 659.2 979.2 550.4 979.2 426.667c2.133-211.2-170.667-384-381.867-384z m117.334 64c36.266 12.8 68.266 32 98.133 55.466-12.8 10.667-29.867 21.334-46.933 32-12.8-34.133-29.867-64-51.2-87.466z m96 298.666c-2.134-61.866-12.8-119.466-27.734-170.666 23.467-12.8 44.8-25.6 61.867-42.667 53.333 55.467 89.6 130.133 93.867 213.333h-128z" p-id="3657" fill="#4285F4"></path></svg>