<?xml version="1.0" standalone="no"?><!DOCTYPE svg PUBLIC "-//W3C//DTD SVG 1.1//EN" "http://www.w3.org/Graphics/SVG/1.1/DTD/svg11.dtd"><svg t="1499285259691" class="icon" style="" viewBox="0 0 1024 1024" version="1.1" xmlns="http://www.w3.org/2000/svg" p-id="1897" xmlns:xlink="http://www.w3.org/1999/xlink" width="200" height="200"><defs><style type="text/css"></style></defs><path d="M512.019443 672.349011c22.553669 0 40.903595-18.348903 40.903595-40.904619l0-302.874075c0-22.553669-18.348903-40.903595-40.903595-40.903595-22.551622 0-40.900525 18.348903-40.900525 40.903595L471.118917 631.444393C471.120964 654.000108 489.467821 672.349011 512.019443 672.349011z" p-id="1898" fill="#ffffff"></path><path d="M512.019443 725.287711c-15.189957 0-30.066783 6.161327-40.821731 16.907065-10.743692 10.747785-16.906042 25.62768-16.906042 40.824801 0 15.196097 6.16235 30.074969 16.907065 40.819684 10.746762 10.744715 25.625634 16.907065 40.820708 16.907065 15.195074 0 30.073946-6.16235 40.819684-16.907065 10.747785-10.748808 16.911158-25.626657 16.911158-40.819684 0-15.195074-6.163373-30.075992-16.914228-40.827871C542.086226 731.449038 527.210423 725.287711 512.019443 725.287711z" p-id="1899" fill="#ffffff"></path><path d="M898.251018 967.019241l-772.504082 0c-29.502941 0-55.923684-16.679891-70.675666-44.61922s-14.751982-61.301158 0-89.24151L441.324334 101.601003c14.750959-27.939329 41.172725-44.620243 70.675666-44.620243 29.503964 0 55.92573 16.679891 70.677713 44.620243L968.927707 833.158511c14.751982 27.940352 14.751982 61.301158 0 89.24151C954.175725 950.33935 927.754982 967.019241 898.251018 967.019241zM511.998977 125.759215c-3.246951 0-11.329023 0.9967-16.205077 10.231015L109.542882 867.547739c-4.875031 9.234315-1.623987 17.385972 0.001023 20.461007 1.623987 3.076058 6.453992 10.231015 16.204054 10.231015l772.504082 0c9.751085 0 14.58109-7.153934 16.205077-10.231015 1.62501-3.076058 4.876054-11.226692 0-20.461007L528.205077 135.990231C523.329023 126.756939 515.247974 125.759215 511.998977 125.759215z" p-id="1900" fill="#ffffff"></path></svg>